<?xml version="1.0" encoding="UTF-8" standalone="no"?>
<svg
        width="26.42676"
        height="21.651312"
        viewBox="0 0 26.42676 21.651312"
        id="svg1"
        xmlns="http://www.w3.org/2000/svg"
>

    <path
            fill="hsl(142.1 76.2% 36.3%)"
            fill-rule="evenodd"
            d="m 14.818192,1.984158 c 2.652185,-2.645544 6.967488,-2.645544 9.619496,0 2.652096,2.645632 2.652096,6.950416 0,9.596048 v 0 l -9.298834,9.276168 c -1.06255,1.05996 -2.785213,1.059872 -3.847763,0 v 0 L 22.513806,9.6610136 C 23.284629,8.89207 23.709208,7.869686 23.709208,6.782182 c 0,-1.087504 -0.424579,-2.109888 -1.195402,-2.878832 -1.591222,-1.587344 -4.180421,-1.587344 -5.771644,0 v 0 L 9.3672094,11.260326 5.8400198,7.741734 c -0.5312309,-0.529936 -0.5312309,-1.389168 0,-1.919192 0.5313191,-0.529936 1.3926506,-0.529936 1.9239697,0 v 0 l 1.6032199,1.599312 z m -12.8259439,8.8e-6 c 2.5443859,-2.538096 6.6191261,-2.640792 9.2878959,-0.308968 v 0 l -1.9308511,1.926144 c -1.6009263,-1.277672 -3.9502688,-1.177264 -5.4331634,0.302016 -1.5912226,1.587344 -1.5912226,4.170232 0,5.7576638 v 0 l 5.451071,5.4376964 9.2988345,-9.2761682 c 0.531231,-0.529936 1.39265,-0.529936 1.923881,0 0.531231,0.529936 0.531231,1.389256 0,1.919192 v 0 L 9.3672005,18.937103 1.9922481,11.580215 C 0.70757271,10.298583 0,8.5946388 0,6.7821908 0,4.9697428 0.70757271,3.2657108 1.9922481,1.9841668 Z"
            id="path1"
    />
</svg>
